<svg width="798" height="270" viewBox="0 0 798 270" fill="none" xmlns="http://www.w3.org/2000/svg">
<path d="M215.642 224.55V202.732H223.014C224.726 202.732 226.125 203.041 227.212 203.659C228.305 204.27 229.115 205.097 229.641 206.141C230.166 207.185 230.429 208.35 230.429 209.635C230.429 210.921 230.166 212.089 229.641 213.14C229.122 214.191 228.32 215.029 227.233 215.654C226.146 216.272 224.754 216.581 223.057 216.581H217.773V214.238H222.972C224.143 214.238 225.085 214.035 225.795 213.63C226.505 213.225 227.02 212.679 227.339 211.99C227.666 211.294 227.83 210.509 227.83 209.635C227.83 208.762 227.666 207.98 227.339 207.292C227.02 206.603 226.501 206.063 225.784 205.672C225.067 205.274 224.115 205.076 222.929 205.076H218.284V224.55H215.642ZM233.353 224.55H230.583L238.595 202.732H241.322L249.333 224.55H246.564L240.044 206.184H239.873L233.353 224.55ZM234.376 216.027H245.541V218.371H234.376V216.027ZM252.732 224.55V202.732H260.104C261.809 202.732 263.208 203.023 264.301 203.605C265.395 204.181 266.205 204.973 266.73 205.981C267.256 206.99 267.519 208.137 267.519 209.422C267.519 210.708 267.256 211.848 266.73 212.842C266.205 213.836 265.399 214.618 264.312 215.186C263.225 215.747 261.837 216.027 260.147 216.027H254.181V213.641H260.061C261.226 213.641 262.164 213.471 262.874 213.13C263.591 212.789 264.11 212.306 264.429 211.681C264.756 211.049 264.919 210.296 264.919 209.422C264.919 208.549 264.756 207.785 264.429 207.132C264.103 206.478 263.581 205.974 262.863 205.619C262.146 205.257 261.198 205.076 260.019 205.076H255.374V224.55H252.732ZM263.002 214.749L268.371 224.55H265.303L260.019 214.749H263.002ZM272.816 224.55H270.046L278.058 202.732H280.785L288.796 224.55H286.026L279.507 206.184H279.336L272.816 224.55ZM273.839 216.027H285.004V218.371H273.839V216.027ZM292.195 202.732H295.348L302.763 220.843H303.019L310.433 202.732H313.587V224.55H311.115V207.973H310.902L304.084 224.55H301.698L294.879 207.973H294.666V224.55H292.195V202.732ZM318.884 224.55V202.732H332.052V205.076H321.526V212.448H331.37V214.792H321.526V222.206H332.222V224.55H318.884ZM335.621 205.076V202.732H351.984V205.076H345.124V224.55H342.482V205.076H335.621ZM356.062 224.55V202.732H363.434C365.139 202.732 366.538 203.023 367.632 203.605C368.725 204.181 369.535 204.973 370.061 205.981C370.586 206.99 370.849 208.137 370.849 209.422C370.849 210.708 370.586 211.848 370.061 212.842C369.535 213.836 368.729 214.618 367.642 215.186C366.556 215.747 365.167 216.027 363.477 216.027H357.511V213.641H363.392C364.556 213.641 365.494 213.471 366.204 213.13C366.921 212.789 367.44 212.306 367.759 211.681C368.086 211.049 368.249 210.296 368.249 209.422C368.249 208.549 368.086 207.785 367.759 207.132C367.433 206.478 366.911 205.974 366.193 205.619C365.476 205.257 364.528 205.076 363.349 205.076H358.704V224.55H356.062ZM366.332 214.749L371.701 224.55H368.633L363.349 214.749H366.332ZM377.893 202.732V224.55H375.251V202.732H377.893ZM400.748 209.55H398.106C397.949 208.79 397.676 208.122 397.285 207.547C396.902 206.972 396.433 206.489 395.879 206.098C395.332 205.701 394.725 205.402 394.057 205.203C393.39 205.005 392.694 204.905 391.969 204.905C390.648 204.905 389.452 205.239 388.379 205.907C387.314 206.574 386.465 207.558 385.833 208.858C385.208 210.157 384.895 211.752 384.895 213.641C384.895 215.53 385.208 217.125 385.833 218.424C386.465 219.724 387.314 220.708 388.379 221.375C389.452 222.043 390.648 222.377 391.969 222.377C392.694 222.377 393.39 222.277 394.057 222.078C394.725 221.88 395.332 221.585 395.879 221.194C396.433 220.796 396.902 220.31 397.285 219.735C397.676 219.152 397.949 218.485 398.106 217.732H400.748C400.549 218.847 400.187 219.845 399.661 220.725C399.135 221.606 398.482 222.355 397.701 222.973C396.92 223.584 396.042 224.049 395.069 224.369C394.104 224.689 393.07 224.848 391.969 224.848C390.108 224.848 388.454 224.394 387.005 223.485C385.556 222.576 384.416 221.283 383.585 219.607C382.754 217.931 382.339 215.942 382.339 213.641C382.339 211.34 382.754 209.351 383.585 207.675C384.416 205.999 385.556 204.706 387.005 203.797C388.454 202.888 390.108 202.434 391.969 202.434C393.07 202.434 394.104 202.593 395.069 202.913C396.042 203.233 396.92 203.701 397.701 204.319C398.482 204.93 399.135 205.676 399.661 206.556C400.187 207.43 400.549 208.428 400.748 209.55ZM416.097 202.732V224.55H413.455V202.732H416.097ZM438.695 202.732V224.55H436.138L424.249 207.419H424.036V224.55H421.394V202.732H423.951L435.883 219.905H436.096V202.732H438.695ZM455.914 208.186C455.786 207.107 455.267 206.269 454.358 205.672C453.449 205.076 452.334 204.777 451.013 204.777C450.047 204.777 449.202 204.934 448.478 205.246C447.76 205.559 447.199 205.988 446.794 206.535C446.397 207.082 446.198 207.703 446.198 208.399C446.198 208.982 446.336 209.483 446.613 209.902C446.897 210.314 447.26 210.658 447.7 210.935C448.14 211.205 448.602 211.429 449.085 211.606C449.568 211.777 450.012 211.915 450.417 212.022L452.632 212.618C453.201 212.767 453.833 212.973 454.529 213.236C455.232 213.499 455.903 213.858 456.542 214.312C457.189 214.76 457.721 215.335 458.14 216.038C458.559 216.741 458.769 217.604 458.769 218.627C458.769 219.806 458.46 220.871 457.842 221.823C457.231 222.774 456.336 223.531 455.157 224.092C453.985 224.653 452.561 224.934 450.885 224.934C449.323 224.934 447.97 224.681 446.826 224.177C445.69 223.673 444.795 222.97 444.142 222.068C443.495 221.166 443.13 220.118 443.044 218.925H445.772C445.843 219.749 446.12 220.431 446.603 220.971C447.093 221.503 447.711 221.901 448.456 222.164C449.209 222.419 450.019 222.547 450.885 222.547C451.894 222.547 452.799 222.384 453.602 222.057C454.404 221.723 455.04 221.262 455.509 220.672C455.978 220.076 456.212 219.38 456.212 218.584C456.212 217.86 456.01 217.27 455.605 216.816C455.2 216.361 454.667 215.992 454.007 215.708C453.346 215.424 452.632 215.175 451.865 214.962L449.181 214.195C447.476 213.705 446.127 213.005 445.132 212.096C444.138 211.187 443.641 209.997 443.641 208.527C443.641 207.306 443.971 206.24 444.632 205.331C445.299 204.415 446.194 203.705 447.316 203.201C448.446 202.689 449.706 202.434 451.098 202.434C452.505 202.434 453.755 202.686 454.848 203.19C455.942 203.687 456.809 204.369 457.448 205.235C458.094 206.102 458.435 207.086 458.471 208.186H455.914ZM477.431 202.732H480.073V217.178C480.073 218.669 479.721 220.001 479.018 221.173C478.322 222.338 477.339 223.257 476.067 223.932C474.796 224.6 473.305 224.934 471.593 224.934C469.881 224.934 468.39 224.6 467.118 223.932C465.847 223.257 464.86 222.338 464.157 221.173C463.461 220.001 463.113 218.669 463.113 217.178V202.732H465.755V216.965C465.755 218.03 465.989 218.978 466.458 219.809C466.927 220.633 467.594 221.283 468.461 221.759C469.334 222.228 470.378 222.462 471.593 222.462C472.807 222.462 473.851 222.228 474.725 221.759C475.599 221.283 476.266 220.633 476.728 219.809C477.197 218.978 477.431 218.03 477.431 216.965V202.732ZM485.349 224.55V202.732H492.721C494.426 202.732 495.825 203.023 496.919 203.605C498.012 204.181 498.822 204.973 499.348 205.981C499.873 206.99 500.136 208.137 500.136 209.422C500.136 210.708 499.873 211.848 499.348 212.842C498.822 213.836 498.016 214.618 496.929 215.186C495.843 215.747 494.454 216.027 492.764 216.027H486.798V213.641H492.679C493.843 213.641 494.781 213.471 495.491 213.13C496.208 212.789 496.727 212.306 497.047 211.681C497.373 211.049 497.537 210.296 497.537 209.422C497.537 208.549 497.373 207.785 497.047 207.132C496.72 206.478 496.198 205.974 495.48 205.619C494.763 205.257 493.815 205.076 492.636 205.076H487.991V224.55H485.349ZM495.619 214.749L500.988 224.55H497.92L492.636 214.749H495.619ZM505.433 224.55H502.664L510.675 202.732H513.402L521.414 224.55H518.644L512.124 206.184H511.953L505.433 224.55ZM506.456 216.027H517.621V218.371H506.456V216.027ZM542.113 202.732V224.55H539.556L527.667 207.419H527.454V224.55H524.812V202.732H527.369L539.301 219.905H539.514V202.732H542.113ZM564.957 209.55H562.315C562.158 208.79 561.885 208.122 561.494 207.547C561.111 206.972 560.642 206.489 560.088 206.098C559.541 205.701 558.934 205.402 558.266 205.203C557.599 205.005 556.903 204.905 556.178 204.905C554.857 204.905 553.661 205.239 552.588 205.907C551.523 206.574 550.674 207.558 550.042 208.858C549.417 210.157 549.104 211.752 549.104 213.641C549.104 215.53 549.417 217.125 550.042 218.424C550.674 219.724 551.523 220.708 552.588 221.375C553.661 222.043 554.857 222.377 556.178 222.377C556.903 222.377 557.599 222.277 558.266 222.078C558.934 221.88 559.541 221.585 560.088 221.194C560.642 220.796 561.111 220.31 561.494 219.735C561.885 219.152 562.158 218.485 562.315 217.732H564.957C564.758 218.847 564.396 219.845 563.87 220.725C563.344 221.606 562.691 222.355 561.91 222.973C561.129 223.584 560.251 224.049 559.278 224.369C558.313 224.689 557.279 224.848 556.178 224.848C554.317 224.848 552.663 224.394 551.214 223.485C549.765 222.576 548.625 221.283 547.794 219.607C546.963 217.931 546.548 215.942 546.548 213.641C546.548 211.34 546.963 209.351 547.794 207.675C548.625 205.999 549.765 204.706 551.214 203.797C552.663 202.888 554.317 202.434 556.178 202.434C557.279 202.434 558.313 202.593 559.278 202.913C560.251 203.233 561.129 203.701 561.91 204.319C562.691 204.93 563.344 205.676 563.87 206.556C564.396 207.43 564.758 208.428 564.957 209.55ZM569.226 224.55V202.732H582.394V205.076H571.868V212.448H581.712V214.792H571.868V222.206H582.564V224.55H569.226Z" fill="#183E77"/>
<path d="M328.59 134.61H344.91L336.75 111.28L328.59 134.61Z" fill="#183E77"/>
<path d="M528.16 124.14H516.93V140.94H528.16C532.86 140.94 540.25 139.79 540.25 132.49C540.25 123.47 528.16 124.14 528.16 124.14Z" fill="#183E77"/>
<path d="M539.29 104.56C539.29 95.5401 528.16 96.0201 528.16 96.0201H516.93V112.91H528.16C528.16 112.91 539.29 112.91 539.29 104.56Z" fill="#183E77"/>
<path d="M687.5 51.5H110.5C73.77 51.5 44 81.27 44 118C44 154.73 73.77 184.5 110.5 184.5H687.5C724.23 184.5 754 154.73 754 118C754 81.27 724.23 51.5 687.5 51.5ZM110.69 141.81C116.83 141.81 122.5 139.31 126.53 135.28L134.4 143.25C128.35 149.3 120 153.04 110.69 153.04C92.16 153.04 77 139.6 77 118.48C77 97.36 91.02 83.92 110.69 83.92C120 83.92 128.35 87.66 134.4 93.81L126.53 101.68C122.5 97.65 116.83 95.15 110.69 95.15C96.87 95.15 88.42 104.94 88.42 118.48C88.42 132.88 98.31 141.81 110.69 141.81ZM183.02 152.08H146.93V84.88H158.16V140.84H183.02V152.07V152.08ZM217.58 152.08H190.61V141.81H198.48V95.16H190.99V84.89H217.2V95.16H209.71V141.81H217.58V152.08ZM302.38 152.08H291.15V110.8L271.86 152.08H261.3L240.76 109.94V152.08H229.53V84.79H240.95L266.48 137.11L290.96 84.79H302.38V152.08ZM351.54 152.08L348.56 144.3H324.95L322.07 152.08H309.98L336.76 82.96L363.64 152.08H351.55H351.54ZM405.91 95.16H391.8V152.08H380.67V95.16H366.56V84.89H405.92V95.16H405.91ZM460.05 96.12H426.45V112.92H454.38V124.05H426.45V140.85H460.05V152.08H415.22V84.88H460.05V96.11V96.12ZM551.48 132.79C551.48 151.22 532.67 152.08 528.15 152.08H505.78V84.88H528.15C528.15 84.88 550.52 84.4 550.52 103.79C550.52 112.62 545.05 117.13 539.29 118.57C551.96 121.16 551.48 132.78 551.48 132.78V132.79ZM587.23 152.08H560.26V141.81H568.13V95.16H560.64V84.89H586.85V95.16H579.36V141.81H587.23V152.08ZM654.23 152.08H642.9L609.49 104.28V152.08H598.26V84.88H609.59L643.09 132.68V84.88H654.23V152.08ZM681.73 152.08H670.5V84.88H681.73C698.05 84.88 720.99 88.62 720.99 118.48C720.99 148.34 698.43 152.08 681.73 152.08Z" fill="#183E77"/>
<path d="M681.738 95.83V141.14C681.738 141.14 709.668 144.98 709.668 118.49C709.668 92 681.738 95.84 681.738 95.84V95.83Z" fill="#183E77"/>
<path d="M728.311 27.7998V25.0655H747.402V27.7998H739.398V50.52H736.316V27.7998H728.311ZM752.16 25.0655H755.839L764.489 46.1947H764.787L773.438 25.0655H777.117V50.52H774.233V31.1805H773.985L766.03 50.52H763.246L755.292 31.1805H755.043V50.52H752.16V25.0655Z" fill="#183E77"/>
</svg>
